<svg width="169" height="118" viewBox="0 0 169 118" fill="none" xmlns="http://www.w3.org/2000/svg">
<path d="M0 58.9023L58.9023 1.04572e-05L117.805 58.9023L58.9023 117.805L0 58.9023Z" fill="#2E53D8"/>
<path d="M50.9778 58.9023L109.88 1.04572e-05L168.783 58.9023L109.88 117.805L50.9778 58.9023Z" fill="#94D4F9"/>
<path d="M62.6475 58.9623L109.94 11.6696L157.233 58.9623L109.94 106.255L62.6475 58.9623Z" fill="#24262F"/>
<path d="M11.6696 58.9623L58.9623 11.6696L106.255 58.9623L58.9623 106.255L11.6696 58.9623Z" fill="#24262F"/>
<circle cx="83.837" cy="58.6552" r="47.5998" fill="#24262F"/>
<path d="M131.437 58.6552C131.437 84.9439 110.126 106.255 83.837 106.255C57.5484 106.255 36.2372 84.9439 36.2372 58.6552C36.2372 32.3666 57.5484 11.0554 83.837 11.0554C110.126 11.0554 131.437 32.3666 131.437 58.6552ZM40.9972 58.6552C40.9972 82.315 60.1773 101.495 83.837 101.495C107.497 101.495 126.677 82.315 126.677 58.6552C126.677 34.9955 107.497 15.8154 83.837 15.8154C60.1773 15.8154 40.9972 34.9955 40.9972 58.6552Z" fill="#7890E6"/>
<path d="M79.0586 85.3725H72.2042C71.6441 85.3725 71.2314 85.2546 70.966 85.0187C70.7302 84.7534 70.6122 84.3407 70.6122 83.7805V55.1248C70.6122 54.5647 70.7302 54.1667 70.966 53.9309C71.2314 53.6655 71.6441 53.5329 72.2042 53.5329H79.0586C79.6187 53.5329 80.0167 53.6655 80.2526 53.9309C80.5179 54.1667 80.6506 54.5647 80.6506 55.1248V64.721H88.0356V55.1248C88.0356 54.5647 88.1535 54.1667 88.3894 53.9309C88.6547 53.6655 89.0675 53.5329 89.6276 53.5329H96.482C97.0421 53.5329 97.4401 53.6655 97.676 53.9309C97.9413 54.1667 98.0739 54.5647 98.0739 55.1248V83.7805C98.0739 84.3407 97.9413 84.7534 97.676 85.0187C97.4401 85.2546 97.0421 85.3725 96.482 85.3725H89.6276C89.0675 85.3725 88.6547 85.2546 88.3894 85.0187C88.1535 84.7534 88.0356 84.3407 88.0356 83.7805V73.9633H80.6506V83.7805C80.6506 84.3407 80.5179 84.7534 80.2526 85.0187C80.0167 85.2546 79.6187 85.3725 79.0586 85.3725Z" fill="white"/>
<path d="M82.7683 41.3227L80.6899 48.0444H87.6327L85.5543 41.3227C85.4364 41.0574 85.3037 40.8658 85.1563 40.7479C85.0384 40.6299 84.891 40.571 84.7141 40.571H83.6085C83.4316 40.571 83.2695 40.6299 83.1221 40.7479C83.0042 40.8658 82.8862 41.0574 82.7683 41.3227ZM80.2477 62.2838C80.2477 62.844 80.115 63.2567 79.8497 63.5221C79.6138 63.7579 79.2158 63.8758 78.6557 63.8758H72.1551C71.595 63.8758 71.1822 63.7579 70.9169 63.5221C70.681 63.2567 70.5631 62.844 70.5631 62.2838V50.6093C70.5631 49.7249 70.6958 48.7078 70.9611 47.558C71.2559 46.4082 71.6981 45.0669 72.2878 43.5338L76.135 33.4955C76.3119 32.9943 76.5773 32.6258 76.931 32.39C77.3143 32.1541 77.8007 32.0362 78.3904 32.0362H90.286C90.8461 32.0362 91.3031 32.1541 91.6569 32.39C92.0401 32.6258 92.3202 32.9943 92.4971 33.4955L96.3444 43.5338C96.934 45.0669 97.3615 46.4082 97.6268 47.558C97.9216 48.7078 98.069 49.7249 98.069 50.6093V62.2838C98.069 62.844 97.9364 63.2567 97.671 63.5221C97.4352 63.7579 97.0372 63.8758 96.4771 63.8758H89.7996C89.2099 63.8758 88.7677 63.7579 88.4729 63.5221C88.2076 63.2567 88.0749 62.844 88.0749 62.2838V56.0928H80.2477V62.2838Z" fill="white"/>
</svg>
