<svg width="275" height="192" viewBox="0 0 275 192" fill="none" xmlns="http://www.w3.org/2000/svg">
<path d="M0 95.9023L95.9023 9.04552e-06L191.805 95.9023L95.9023 191.805L0 95.9023Z" fill="#2E53D8"/>
<path d="M83 95.9023L178.902 9.04552e-06L274.805 95.9023L178.902 191.805L83 95.9023Z" fill="#94D4F9"/>
<path d="M102 96L179 19L256 96L179 173L102 96Z" fill="#24262F"/>
<path d="M19 96L96 19L173 96L96 173L19 96Z" fill="#24262F"/>
<circle cx="136.5" cy="95.5" r="77.5" fill="#24262F"/>
<path d="M214 95.5C214 138.302 179.302 173 136.5 173C93.6979 173 59 138.302 59 95.5C59 52.6979 93.6979 18 136.5 18C179.302 18 214 52.6979 214 95.5ZM66.75 95.5C66.75 134.022 97.9781 165.25 136.5 165.25C175.022 165.25 206.25 134.022 206.25 95.5C206.25 56.9781 175.022 25.75 136.5 25.75C97.9781 25.75 66.75 56.9781 66.75 95.5Z" fill="#7890E6"/>
<path d="M128.72 139H117.56C116.648 139 115.976 138.808 115.544 138.424C115.16 137.992 114.968 137.32 114.968 136.408V89.752C114.968 88.84 115.16 88.192 115.544 87.808C115.976 87.376 116.648 87.16 117.56 87.16H128.72C129.632 87.16 130.28 87.376 130.664 87.808C131.096 88.192 131.312 88.84 131.312 89.752V105.376H143.336V89.752C143.336 88.84 143.528 88.192 143.912 87.808C144.344 87.376 145.016 87.16 145.928 87.16H157.088C158 87.16 158.648 87.376 159.032 87.808C159.464 88.192 159.68 88.84 159.68 89.752V136.408C159.68 137.32 159.464 137.992 159.032 138.424C158.648 138.808 158 139 157.088 139H145.928C145.016 139 144.344 138.808 143.912 138.424C143.528 137.992 143.336 137.32 143.336 136.408V120.424H131.312V136.408C131.312 137.32 131.096 137.992 130.664 138.424C130.28 138.808 129.632 139 128.72 139Z" fill="white"/>
<path d="M134.76 67.28L131.376 78.224H142.68L139.296 67.28C139.104 66.848 138.888 66.536 138.648 66.344C138.456 66.152 138.216 66.056 137.928 66.056H136.128C135.84 66.056 135.576 66.152 135.336 66.344C135.144 66.536 134.952 66.848 134.76 67.28ZM130.656 101.408C130.656 102.32 130.44 102.992 130.008 103.424C129.624 103.808 128.976 104 128.064 104H117.48C116.568 104 115.896 103.808 115.464 103.424C115.08 102.992 114.888 102.32 114.888 101.408V82.4C114.888 80.96 115.104 79.304 115.536 77.432C116.016 75.56 116.736 73.376 117.696 70.88L123.96 54.536C124.248 53.72 124.68 53.12 125.256 52.736C125.88 52.352 126.672 52.16 127.632 52.16H147C147.912 52.16 148.656 52.352 149.232 52.736C149.856 53.12 150.312 53.72 150.6 54.536L156.864 70.88C157.824 73.376 158.52 75.56 158.952 77.432C159.432 79.304 159.672 80.96 159.672 82.4V101.408C159.672 102.32 159.456 102.992 159.024 103.424C158.64 103.808 157.992 104 157.08 104H146.208C145.248 104 144.528 103.808 144.048 103.424C143.616 102.992 143.4 102.32 143.4 101.408V91.328H130.656V101.408Z" fill="white"/>
</svg>
