<svg width="275" height="192" viewBox="0 0 275 192" fill="none" xmlns="http://www.w3.org/2000/svg">
<path d="M0 95.9023L95.9023 9.04552e-06L191.805 95.9023L95.9023 191.805L0 95.9023Z" fill="#2E53D8"/>
<path d="M83 95.9023L178.902 9.04552e-06L274.805 95.9023L178.902 191.805L83 95.9023Z" fill="#94D4F9"/>
<path d="M102 96L179 19L256 96L179 173L102 96Z" fill="#24262F"/>
<path d="M19 96L96 19L173 96L96 173L19 96Z" fill="#24262F"/>
<circle cx="136.5" cy="95.5" r="77.5" fill="#24262F"/>
<path d="M105.76 83.28L102.376 94.224H113.68L110.296 83.28C110.104 82.848 109.888 82.536 109.648 82.344C109.456 82.152 109.216 82.056 108.928 82.056H107.128C106.84 82.056 106.576 82.152 106.336 82.344C106.144 82.536 105.952 82.848 105.76 83.28ZM101.656 117.408C101.656 118.32 101.44 118.992 101.008 119.424C100.624 119.808 99.976 120 99.064 120H88.48C87.568 120 86.896 119.808 86.464 119.424C86.08 118.992 85.888 118.32 85.888 117.408V98.4C85.888 96.96 86.104 95.304 86.536 93.432C87.016 91.56 87.736 89.376 88.696 86.88L94.96 70.536C95.248 69.72 95.68 69.12 96.256 68.736C96.88 68.352 97.672 68.16 98.632 68.16H118C118.912 68.16 119.656 68.352 120.232 68.736C120.856 69.12 121.312 69.72 121.6 70.536L127.864 86.88C128.824 89.376 129.52 91.56 129.952 93.432C130.432 95.304 130.672 96.96 130.672 98.4V117.408C130.672 118.32 130.456 118.992 130.024 119.424C129.64 119.808 128.992 120 128.08 120H117.208C116.248 120 115.528 119.808 115.048 119.424C114.616 118.992 114.4 118.32 114.4 117.408V107.328H101.656V117.408ZM153.314 120H142.154C141.242 120 140.57 119.808 140.138 119.424C139.754 118.992 139.562 118.32 139.562 117.408V70.752C139.562 69.84 139.754 69.192 140.138 68.808C140.57 68.376 141.242 68.16 142.154 68.16H153.314C154.226 68.16 154.874 68.376 155.258 68.808C155.69 69.192 155.906 69.84 155.906 70.752V86.376H167.93V70.752C167.93 69.84 168.122 69.192 168.506 68.808C168.938 68.376 169.61 68.16 170.522 68.16H181.682C182.594 68.16 183.242 68.376 183.626 68.808C184.058 69.192 184.274 69.84 184.274 70.752V117.408C184.274 118.32 184.058 118.992 183.626 119.424C183.242 119.808 182.594 120 181.682 120H170.522C169.61 120 168.938 119.808 168.506 119.424C168.122 118.992 167.93 118.32 167.93 117.408V101.424H155.906V117.408C155.906 118.32 155.69 118.992 155.258 119.424C154.874 119.808 154.226 120 153.314 120Z" fill="white"/>
<path d="M214 95.5C214 138.302 179.302 173 136.5 173C93.6979 173 59 138.302 59 95.5C59 52.6979 93.6979 18 136.5 18C179.302 18 214 52.6979 214 95.5ZM66.75 95.5C66.75 134.022 97.9781 165.25 136.5 165.25C175.022 165.25 206.25 134.022 206.25 95.5C206.25 56.9781 175.022 25.75 136.5 25.75C97.9781 25.75 66.75 56.9781 66.75 95.5Z" fill="#7890E6"/>
</svg>
