<svg width="157" height="158" viewBox="0 0 157 158" fill="none" xmlns="http://www.w3.org/2000/svg">
<path d="M111 12L121.328 43.7852H154.749L127.71 63.4296L138.038 95.2148L111 75.5704L83.9619 95.2148L94.2895 63.4296L67.2514 43.7852H100.672L111 12Z" fill="#94D4F9"/>
<path d="M46 12L56.3276 43.7852H89.7486L62.7105 63.4296L73.0381 95.2148L46 75.5704L18.9619 95.2148L29.2895 63.4296L2.2514 43.7852H35.6724L46 12Z" fill="#2E53D8"/>
<path d="M79 0L92.0218 40.077H134.161L100.07 64.846L113.092 104.923L79 80.154L44.9085 104.923L57.9303 64.846L23.8387 40.077H65.9782L79 0Z" fill="#7890E6"/>
<path d="M19.625 130.211C21.2188 130.211 22.7598 130.311 24.248 130.51C25.748 130.697 27.0898 131.025 28.2734 131.494C29.4688 131.951 30.4473 132.572 31.209 133.357C31.9824 134.143 32.4336 135.121 32.5625 136.293L27.9922 137.559C27.9922 136.855 27.752 136.281 27.2715 135.836C26.8027 135.379 26.1758 135.021 25.3906 134.764C24.6172 134.494 23.7266 134.307 22.7188 134.201C21.7227 134.096 20.6914 134.043 19.625 134.043C18.582 134.043 17.5566 134.09 16.5488 134.184C15.541 134.277 14.6328 134.453 13.8242 134.711C13.0273 134.969 12.3828 135.326 11.8906 135.783C11.3984 136.24 11.1523 136.832 11.1523 137.559V141.742H32.5625V150.848C32.5625 151.633 32.3867 152.336 32.0352 152.957C31.6953 153.566 31.2207 154.1 30.6113 154.557C30.0137 155.002 29.2988 155.383 28.4668 155.699C27.6465 156.004 26.7559 156.25 25.7949 156.438C24.8457 156.625 23.8438 156.76 22.7891 156.842C21.7344 156.924 20.6797 156.965 19.625 156.965C18.5469 156.965 17.4863 156.924 16.4434 156.842C15.4004 156.76 14.4102 156.625 13.4727 156.438C12.5352 156.25 11.6621 156.004 10.8535 155.699C10.0566 155.383 9.35352 155.002 8.74414 154.557C8.13477 154.1 7.64258 153.566 7.26758 152.957C6.89258 152.348 6.66406 151.645 6.58203 150.848L11.1523 149.582C11.1523 150.309 11.3984 150.9 11.8906 151.357C12.3828 151.814 13.0273 152.172 13.8242 152.43C14.6328 152.688 15.541 152.863 16.5488 152.957C17.5566 153.051 18.582 153.098 19.625 153.098C20.6914 153.098 21.7227 153.051 22.7188 152.957C23.7266 152.852 24.6172 152.67 25.3906 152.412C26.1758 152.143 26.8027 151.779 27.2715 151.322C27.752 150.865 27.9922 150.285 27.9922 149.582V145.293H6.58203V136.293C6.58203 135.508 6.75195 134.816 7.0918 134.219C7.44336 133.609 7.91797 133.082 8.51562 132.637C9.125 132.18 9.8457 131.799 10.6777 131.494C11.5098 131.178 12.4062 130.926 13.3672 130.738C14.3398 130.551 15.3535 130.416 16.4082 130.334C17.4746 130.252 18.5469 130.211 19.625 130.211ZM46.8711 130.281C48.6875 130.281 50.5977 130.346 52.6016 130.475C54.6055 130.604 56.7148 130.855 58.9297 131.23V135.695C58.1445 135.473 57.248 135.262 56.2402 135.062C55.373 134.898 54.3301 134.74 53.1113 134.588C51.8926 134.436 50.5156 134.336 48.9805 134.289V157.035H44.7969V134.289C43.2617 134.336 41.8848 134.436 40.666 134.588C39.4473 134.74 38.4043 134.898 37.5371 135.062C36.5293 135.262 35.6328 135.473 34.8477 135.695V131.23C37.0391 130.855 39.1484 130.604 41.1758 130.475C43.2031 130.346 45.1016 130.281 46.8711 130.281ZM74.6094 129.543C75.3359 129.543 76.0742 129.619 76.8242 129.771C77.5742 129.912 78.2422 130.105 78.8281 130.352C79.8594 132.156 80.7969 133.996 81.6406 135.871C82.4961 137.734 83.2578 139.656 83.9258 141.637C84.3828 141.695 84.8457 141.76 85.3145 141.83C85.7832 141.889 86.2578 141.953 86.7383 142.023V146.523L85.2266 146.102C85.6484 147.848 86.0059 149.629 86.2988 151.445C86.5918 153.262 86.8086 155.113 86.9492 157H82.7656C82.5898 154.984 82.2969 152.992 81.8867 151.023C81.4766 149.055 81.0078 147.168 80.4805 145.363C79.3438 145.27 78.2598 145.199 77.2285 145.152C76.209 145.105 75.3359 145.082 74.6094 145.082C73.6367 145.082 72.6699 145.1 71.709 145.135C70.748 145.17 69.7812 145.234 68.8086 145.328C68.2812 147.133 67.8066 149.02 67.3848 150.988C66.9746 152.957 66.6875 154.961 66.5234 157H62.3398C62.4688 155.113 62.6738 153.268 62.9551 151.463C63.248 149.658 63.6055 147.883 64.0273 146.137L62.6562 146.523V142.023L65.3633 141.637C66.0195 139.656 66.7695 137.734 67.6133 135.871C68.4688 133.996 69.418 132.156 70.4609 130.352C71.0469 130.105 71.709 129.912 72.4473 129.771C73.1855 129.619 73.9062 129.543 74.6094 129.543ZM74.6094 141.109C75.3125 141.109 76.0391 141.121 76.7891 141.145C77.5391 141.156 78.3125 141.191 79.1094 141.25C78.5117 139.621 77.9199 138.209 77.334 137.014C76.7598 135.807 76.2617 134.875 75.8398 134.219C75.6289 134.125 75.4297 134.061 75.2422 134.025C75.0547 133.99 74.8438 133.973 74.6094 133.973C74.2344 133.973 73.8477 134.055 73.4492 134.219C73.0273 134.875 72.5234 135.807 71.9375 137.014C71.3516 138.209 70.7656 139.621 70.1797 141.25C70.9531 141.191 71.709 141.156 72.4473 141.145C73.1973 141.121 73.918 141.109 74.6094 141.109ZM101.855 130.141C103.027 130.141 104.223 130.199 105.441 130.316C106.672 130.422 107.867 130.615 109.027 130.896C110.188 131.166 111.277 131.547 112.297 132.039C113.316 132.52 114.207 133.135 114.969 133.885C115.742 134.623 116.352 135.514 116.797 136.557C117.242 137.588 117.465 138.801 117.465 140.195C117.465 142.117 117.119 143.74 116.428 145.064C115.736 146.377 114.793 147.438 113.598 148.246C114.102 149.02 114.535 149.828 114.898 150.672C115.262 151.516 115.555 152.336 115.777 153.133C116.012 153.918 116.182 154.65 116.287 155.33C116.393 156.01 116.445 156.578 116.445 157.035H111.945C111.945 156.32 111.887 155.646 111.77 155.014C111.652 154.369 111.488 153.76 111.277 153.186C111.066 152.6 110.82 152.049 110.539 151.533C110.27 151.018 109.977 150.52 109.66 150.039C108.547 150.355 107.369 150.584 106.127 150.725C104.885 150.854 103.59 150.918 102.242 150.918C101.434 150.918 100.613 150.895 99.7812 150.848C98.9492 150.801 98.1289 150.742 97.3203 150.672V156.965H92.9609V131.16C93.2188 131.078 93.6289 130.979 94.1914 130.861C94.7656 130.744 95.4395 130.633 96.2129 130.527C96.998 130.422 97.8711 130.334 98.832 130.264C99.793 130.182 100.801 130.141 101.855 130.141ZM103.121 134.008C102.348 134.008 101.609 134.043 100.906 134.113C100.203 134.172 99.5879 134.242 99.0605 134.324C98.4277 134.418 97.8477 134.523 97.3203 134.641V146.664C97.6953 146.746 98.1113 146.816 98.5684 146.875C98.9551 146.934 99.4062 146.986 99.9219 147.033C100.438 147.068 100.988 147.086 101.574 147.086C102.336 147.086 103.139 147.068 103.982 147.033C104.838 146.986 105.682 146.887 106.514 146.734C107.357 146.582 108.154 146.359 108.904 146.066C109.666 145.762 110.334 145.363 110.908 144.871C111.494 144.367 111.957 143.746 112.297 143.008C112.648 142.27 112.824 141.379 112.824 140.336C112.824 139.469 112.684 138.707 112.402 138.051C112.121 137.395 111.74 136.832 111.26 136.363C110.779 135.895 110.217 135.508 109.572 135.203C108.939 134.898 108.26 134.658 107.533 134.482C106.818 134.307 106.08 134.184 105.318 134.113C104.568 134.043 103.836 134.008 103.121 134.008ZM133.496 130.211C135.09 130.211 136.631 130.311 138.119 130.51C139.619 130.697 140.961 131.025 142.145 131.494C143.34 131.951 144.318 132.572 145.08 133.357C145.854 134.143 146.305 135.121 146.434 136.293L141.863 137.559C141.863 136.855 141.623 136.281 141.143 135.836C140.674 135.379 140.047 135.021 139.262 134.764C138.488 134.494 137.598 134.307 136.59 134.201C135.594 134.096 134.562 134.043 133.496 134.043C132.453 134.043 131.428 134.09 130.42 134.184C129.412 134.277 128.504 134.453 127.695 134.711C126.898 134.969 126.254 135.326 125.762 135.783C125.27 136.24 125.023 136.832 125.023 137.559V141.742H146.434V150.848C146.434 151.633 146.258 152.336 145.906 152.957C145.566 153.566 145.092 154.1 144.482 154.557C143.885 155.002 143.17 155.383 142.338 155.699C141.518 156.004 140.627 156.25 139.666 156.438C138.717 156.625 137.715 156.76 136.66 156.842C135.605 156.924 134.551 156.965 133.496 156.965C132.418 156.965 131.357 156.924 130.314 156.842C129.271 156.76 128.281 156.625 127.344 156.438C126.406 156.25 125.533 156.004 124.725 155.699C123.928 155.383 123.225 155.002 122.615 154.557C122.006 154.1 121.514 153.566 121.139 152.957C120.764 152.348 120.535 151.645 120.453 150.848L125.023 149.582C125.023 150.309 125.27 150.9 125.762 151.357C126.254 151.814 126.898 152.172 127.695 152.43C128.504 152.688 129.412 152.863 130.42 152.957C131.428 153.051 132.453 153.098 133.496 153.098C134.562 153.098 135.594 153.051 136.59 152.957C137.598 152.852 138.488 152.67 139.262 152.412C140.047 152.143 140.674 151.779 141.143 151.322C141.623 150.865 141.863 150.285 141.863 149.582V145.293H120.453V136.293C120.453 135.508 120.623 134.816 120.963 134.219C121.314 133.609 121.789 133.082 122.387 132.637C122.996 132.18 123.717 131.799 124.549 131.494C125.381 131.178 126.277 130.926 127.238 130.738C128.211 130.551 129.225 130.416 130.279 130.334C131.346 130.252 132.418 130.211 133.496 130.211Z" fill="white"/>
</svg>
